<?xml version="1.0" encoding="utf-8" ?>
<svg baseProfile="tiny" height="300px" version="1.2" width="500px" xmlns="http://www.w3.org/2000/svg" xmlns:ev="http://www.w3.org/2001/xml-events" xmlns:xlink="http://www.w3.org/1999/xlink"><defs /><rect fill="#000000" height="100%" width="100%" x="0" y="0" /><polygon fill="#FFFFFF" points="70,200 100,100 130,200" /><polygon fill="#6D6D6D" points="100,100 130,200 115,200 85,100" /><rect fill="#FFFFFF" height="100" width="30" x="150" y="100" /><rect fill="#FFFFFF" height="20" width="30" x="150" y="70" /><polygon fill="#FFFFFF" points="200,200 230,100 260,200" /><polygon fill="#6D6D6D" points="230,100 260,200 245,200 215,100" /><polygon fill="#FFFFFF" points="260,200 290,100 320,200" /><polygon fill="#6D6D6D" points="290,100 320,200 305,200 275,100" /><rect fill="#FFFFFF" height="20" width="30" x="320" y="200" /></svg>