<svg xmlns="http://www.w3.org/2000/svg" viewBox="0 0 190 160"><rect width="14" height="160" x="42" rx="6.8" ry="6.8"/><path d="M190 84c0 4-3 7-7 7h-7c-11 0-20-10-20-21v-8c0-3-3-6-7-6s-7 3-7 6v35c0 12-10 22-21 22h-1c-11 0-21-10-21-22V41c0-4-3-7-7-7-5 0-8 3-8 7v87c0 4-3 7-7 7-3 0-6-3-6-7V41c0-11 9-21 20-21h1c12 0 21 10 21 21v56c0 4 3 8 7 8h1c4 0 7-4 7-8V62c0-11 9-20 21-20 11 0 21 9 21 20v9c0 3 2 6 5 6h8c4 0 7 3 7 7ZM28 47v25C26 86 12 91 0 89V75q14-1 14-13V47c0-9 14-9 14 0Z"/><circle cx="21" cy="27" r="7"/></svg>