<svg xmlns="http://www.w3.org/2000/svg" viewBox="0 0 512 512"><path d="M352 256c0 22-1 44-3 64H163a625 625 0 0 1 0-128h186a598 598 0 0 1 3 64zm29-64h123a255 255 0 0 1 0 128H381a632 632 0 0 0 0-128zm112-32H377C367 96 347 43 321 8a257 257 0 0 1 172 152zm-149 0H168a403 403 0 0 1 27-95 163 163 0 0 1 33-51c11-11 21-14 28-14s17 3 28 14 23 28 33 51c12 26 21 59 27 95zm-209 0H19A257 257 0 0 1 191 8c-26 35-46 88-56 152zM8 192h123a632 632 0 0 0 0 128H8a255 255 0 0 1 0-128zm187 255a396 396 0 0 1-27-95h176a401 401 0 0 1-27 95 163 163 0 0 1-33 51c-11 11-21 14-28 14s-17-3-28-14a163 163 0 0 1-33-51zm-60-95c10 64 30 117 56 152A257 257 0 0 1 19 352h116zm358 0a257 257 0 0 1-171 152c25-35 45-88 55-152h117z"/></svg>