<svg xmlns="http://www.w3.org/2000/svg" xmlns:xlink="http://www.w3.org/1999/xlink" viewBox="0 0 445 352"><defs><linearGradient id="a" x1="64.9" x2="380.6" y1="333.3" y2="17.6" gradientTransform="rotate(25 222 176)" gradientUnits="userSpaceOnUse"><stop offset="0" stop-color="#ff8f2a"/><stop offset="1" stop-color="#fb4d18"/></linearGradient><linearGradient xlink:href="#a" id="b" x1="64.9" x2="380.6" y1="333.3" y2="17.6" gradientTransform="rotate(25 222 176)" gradientUnits="userSpaceOnUse"/><linearGradient xlink:href="#a" id="c" x1="64.9" x2="380.6" y1="333.3" y2="17.6" gradientTransform="rotate(25 222 176)" gradientUnits="userSpaceOnUse"/></defs><path fill="url(#a)" d="m141 145-42 25v-49l42 24z"/><ellipse cx="244.1" cy="145.5" fill="url(#b)" rx="22" ry="21.9"/><path fill="url(#c)" d="M434 77C397-3 271-24 154 30c-32 15-60 34-83 56h30c24 0 43 5 55 15 14 11 21 25 21 46 0 23-8 37-22 49-11 7-25 11-44 11H99v56H52V105C5 159-14 223 11 275c37 80 163 101 280 47 34-16 64-37 88-60h-64V86h47v131h53c30-46 39-97 19-140ZM285 195c-10 8-24 11-43 11h-12v56h-47V86h49c24 0 43 5 55 15 14 11 21 25 21 46 0 22-8 37-23 48Z"/><path fill="#fff" d="M415 217v1-1Z"/></svg>